<svg width="115" height="53" viewBox="0 0 115 53" fill="none" xmlns="http://www.w3.org/2000/svg">
<path d="M10.7832 18.3107L8.69066 23.9855V13.38L5.19754 21.0981V2.76953C3.61496 4.01253 2.33475 5.60888 1.45587 7.43518C0.576991 9.26148 0.12299 11.2688 0.128964 13.3019C0.134939 15.3351 0.60073 17.3396 1.49033 19.1606C2.37992 20.9815 3.6695 22.57 5.25935 23.8034C6.8492 25.0368 8.69674 25.8819 10.6591 26.2735C12.6215 26.665 14.6462 26.5926 16.5767 26.0616C18.5071 25.5307 20.2916 24.5555 21.7922 23.2115C23.2928 21.8675 24.4693 20.1907 25.2307 18.3107H10.7832Z" fill="white"/>
<path d="M6.46094 15.2255L9.95406 7.50739V17.0235H25.6756C26.4213 14.4626 26.389 11.7324 25.5829 9.19046C24.7767 6.64854 23.2343 4.41338 21.1576 2.77767C19.0809 1.14196 16.5668 0.181966 13.9444 0.0233966C11.322 -0.135173 8.71369 0.515076 6.46094 1.88899V15.2255Z" fill="white"/>
<path d="M36.9484 19.5043C36.9484 21.3358 37.6463 23.4029 39.7709 23.4029C41.1073 23.4029 41.9501 22.5757 42.502 21.4239L46.2501 22.0443C45.2583 24.9386 42.756 26.5634 39.7671 26.5634C35.3503 26.5634 32.6484 23.3732 32.6484 18.9719C32.6484 14.5706 34.9434 11.1152 39.5636 11.1152C44.2412 11.1152 46.3328 14.63 46.3328 19.0016V19.5043H36.9484ZM42.4961 16.9315C42.2927 15.4542 41.3632 14.0066 39.7943 14.0066C38.167 14.0066 37.2638 15.4245 37.0623 16.9315H42.4961Z" fill="white"/>
<path d="M52.2949 26.0923H48.2266V1.04297H52.2949V26.0923Z" fill="white"/>
<path d="M58.4494 19.5043C58.4494 21.3358 59.1463 23.4029 61.2719 23.4029C62.6092 23.4029 63.4511 22.5757 64.0039 21.4239L67.7521 22.0443C66.7583 24.9386 64.2648 26.5634 61.267 26.5634C56.8513 26.5634 54.1484 23.3732 54.1484 18.9719C54.1484 14.5706 56.4444 11.1152 61.0636 11.1152C65.7412 11.1152 67.8338 14.63 67.8338 19.0016V19.5043H58.4494ZM63.9971 16.9315C63.7927 15.4542 62.8632 14.0066 61.2943 14.0066C59.667 14.0066 58.7638 15.4245 58.5633 16.9315H63.9971Z" fill="white"/>
<path d="M77.0447 15.0158C76.4607 14.4547 75.7084 14.0114 74.8947 14.0114C74.227 14.0114 73.5584 14.5428 73.5584 15.2523C73.5584 16.315 75.0407 16.6109 76.4928 17.261C77.9751 17.9111 79.4283 18.9154 79.4283 21.4258C79.4283 24.6456 76.8705 26.5653 73.8805 26.5653C72.9193 26.5619 71.9706 26.3437 71.1015 25.9261C70.2325 25.5085 69.4644 24.9018 68.8516 24.1489L70.7105 21.6969C71.496 22.5875 72.5413 23.3791 73.7277 23.3791C74.629 23.3791 75.3551 22.7587 75.3551 21.8137C75.3551 20.5441 73.9311 20.2483 72.5072 19.6279C71.0833 19.0074 69.6604 18.1505 69.6604 15.8173C69.6604 13.1001 71.5203 11.1211 74.193 11.1211C75.7035 11.1211 77.6218 11.5931 78.7839 12.6271L77.0447 15.0158Z" fill="white"/>
<path d="M95.6409 18.8541C95.6409 23.3435 92.6238 26.5634 88.1466 26.5634C83.6695 26.5634 80.6523 23.3435 80.6523 18.8541C80.6523 14.3341 83.7036 11.1152 88.1466 11.1152C92.5897 11.1152 95.6409 14.3341 95.6409 18.8541ZM84.7742 18.8541C84.7742 20.8035 86.0531 22.9012 88.1447 22.9012C90.2363 22.9012 91.5181 20.8035 91.5181 18.8541C91.5181 16.8455 90.2402 14.7774 88.1476 14.7774C86.0551 14.7774 84.7742 16.8455 84.7742 18.8541Z" fill="white"/>
<path d="M101.044 26.0923H96.9766V1.04297H101.044V26.0923Z" fill="white"/>
<path d="M48.0305 43.8652C47.9771 43.8652 47.9271 43.8452 47.8805 43.8052C47.8405 43.7586 47.8205 43.7086 47.8205 43.6552C47.8205 43.6152 47.8238 43.5852 47.8305 43.5652L50.1805 37.1452C50.2005 37.0652 50.2438 36.9986 50.3105 36.9452C50.3771 36.8919 50.4638 36.8652 50.5705 36.8652H52.0505C52.1571 36.8652 52.2438 36.8919 52.3105 36.9452C52.3771 36.9986 52.4205 37.0652 52.4405 37.1452L54.7805 43.5652L54.8005 43.6552C54.8005 43.7086 54.7771 43.7586 54.7305 43.8052C54.6905 43.8452 54.6405 43.8652 54.5805 43.8652H53.3505C53.1905 43.8652 53.0838 43.7952 53.0305 43.6552L52.6405 42.6352H49.9705L49.5905 43.6552C49.5371 43.7952 49.4271 43.8652 49.2605 43.8652H48.0305ZM52.2405 41.1952L51.3105 38.5552L50.3805 41.1952H52.2405ZM57.3301 43.9652C56.7434 43.9652 56.2701 43.7686 55.9101 43.3752C55.5501 42.9752 55.3701 42.4186 55.3701 41.7052V38.9152C55.3701 38.8419 55.3934 38.7819 55.4401 38.7352C55.4867 38.6886 55.5467 38.6652 55.6201 38.6652H56.8701C56.9434 38.6652 57.0034 38.6886 57.0501 38.7352C57.1034 38.7819 57.1301 38.8419 57.1301 38.9152V41.6452C57.1301 42.2986 57.4201 42.6252 58.0001 42.6252C58.2801 42.6252 58.5001 42.5386 58.6601 42.3652C58.8201 42.1919 58.9001 41.9519 58.9001 41.6452V38.9152C58.9001 38.8419 58.9234 38.7819 58.9701 38.7352C59.0234 38.6886 59.0834 38.6652 59.1501 38.6652H60.4001C60.4734 38.6652 60.5334 38.6886 60.5801 38.7352C60.6267 38.7819 60.6501 38.8419 60.6501 38.9152V43.6152C60.6501 43.6819 60.6267 43.7419 60.5801 43.7952C60.5334 43.8419 60.4734 43.8652 60.4001 43.8652H59.2401C59.1734 43.8652 59.1134 43.8419 59.0601 43.7952C59.0134 43.7419 58.9901 43.6819 58.9901 43.6152V43.2352C58.6434 43.7219 58.0901 43.9652 57.3301 43.9652ZM63.9663 43.9652C63.4263 43.9652 62.973 43.8886 62.6063 43.7352C62.2463 43.5819 61.9797 43.3986 61.8063 43.1852C61.633 42.9719 61.5463 42.7819 61.5463 42.6152C61.5463 42.5486 61.5697 42.4952 61.6163 42.4552C61.6697 42.4086 61.7263 42.3852 61.7863 42.3852H62.9263C62.9663 42.3852 63.003 42.4019 63.0363 42.4352C63.1163 42.4886 63.1763 42.5319 63.2163 42.5652C63.363 42.6719 63.4897 42.7519 63.5963 42.8052C63.7097 42.8519 63.8463 42.8752 64.0063 42.8752C64.1997 42.8752 64.3563 42.8386 64.4763 42.7652C64.603 42.6852 64.6663 42.5752 64.6663 42.4352C64.6663 42.3219 64.633 42.2319 64.5663 42.1652C64.5063 42.0986 64.3863 42.0352 64.2063 41.9752C64.0263 41.9086 63.753 41.8386 63.3863 41.7652C62.833 41.6519 62.4063 41.4686 62.1063 41.2152C61.813 40.9552 61.6663 40.6086 61.6663 40.1752C61.6663 39.9019 61.753 39.6419 61.9263 39.3952C62.0997 39.1486 62.3563 38.9486 62.6963 38.7952C63.043 38.6419 63.453 38.5652 63.9263 38.5652C64.3997 38.5652 64.813 38.6386 65.1663 38.7852C65.5197 38.9319 65.7863 39.1119 65.9663 39.3252C66.153 39.5319 66.2463 39.7219 66.2463 39.8952C66.2463 39.9552 66.223 40.0086 66.1763 40.0552C66.1363 40.1019 66.0863 40.1252 66.0263 40.1252H64.9863C64.933 40.1252 64.883 40.1086 64.8363 40.0752C64.7497 40.0286 64.673 39.9786 64.6063 39.9252C64.493 39.8386 64.3863 39.7719 64.2863 39.7252C64.1863 39.6786 64.063 39.6552 63.9163 39.6552C63.743 39.6552 63.603 39.6952 63.4963 39.7752C63.3963 39.8552 63.3463 39.9586 63.3463 40.0852C63.3463 40.1852 63.373 40.2686 63.4263 40.3352C63.4863 40.4019 63.6063 40.4686 63.7863 40.5352C63.973 40.5952 64.2463 40.6586 64.6063 40.7252C65.253 40.8386 65.723 41.0386 66.0163 41.3252C66.3163 41.6119 66.4663 41.9486 66.4663 42.3352C66.4663 42.8286 66.2463 43.2252 65.8063 43.5252C65.3663 43.8186 64.753 43.9652 63.9663 43.9652ZM69.9844 43.8652C68.6044 43.8652 67.9144 43.2086 67.9144 41.8952V39.9752H67.1344C67.061 39.9752 66.9977 39.9519 66.9444 39.9052C66.8977 39.8586 66.8744 39.7986 66.8744 39.7252V38.9152C66.8744 38.8419 66.8977 38.7819 66.9444 38.7352C66.9977 38.6886 67.061 38.6652 67.1344 38.6652H67.9144V37.0152C67.9144 36.9419 67.9377 36.8819 67.9844 36.8352C68.0377 36.7886 68.0977 36.7652 68.1644 36.7652H69.3244C69.3977 36.7652 69.4577 36.7886 69.5044 36.8352C69.551 36.8819 69.5744 36.9419 69.5744 37.0152V38.6652H70.8244C70.8977 38.6652 70.9577 38.6886 71.0044 38.7352C71.0577 38.7819 71.0844 38.8419 71.0844 38.9152V39.7252C71.0844 39.7986 71.0577 39.8586 71.0044 39.9052C70.9577 39.9519 70.8977 39.9752 70.8244 39.9752H69.5744V41.7552C69.5744 42.2486 69.7644 42.4952 70.1444 42.4952H70.9144C70.9877 42.4952 71.0477 42.5186 71.0944 42.5652C71.141 42.6119 71.1644 42.6719 71.1644 42.7452V43.6152C71.1644 43.6819 71.141 43.7419 71.0944 43.7952C71.0477 43.8419 70.9877 43.8652 70.9144 43.8652H69.9844ZM72.2423 43.8652C72.169 43.8652 72.109 43.8419 72.0623 43.7952C72.0157 43.7486 71.9923 43.6886 71.9923 43.6152V38.9152C71.9923 38.8419 72.0157 38.7819 72.0623 38.7352C72.109 38.6886 72.169 38.6652 72.2423 38.6652H73.3923C73.4657 38.6652 73.5257 38.6919 73.5723 38.7452C73.6257 38.7919 73.6523 38.8486 73.6523 38.9152V39.3152C74.019 38.8819 74.5123 38.6652 75.1323 38.6652H75.5723C75.6457 38.6652 75.7057 38.6886 75.7523 38.7352C75.799 38.7819 75.8223 38.8419 75.8223 38.9152V39.9452C75.8223 40.0119 75.799 40.0719 75.7523 40.1252C75.7057 40.1719 75.6457 40.1952 75.5723 40.1952H74.6023C74.329 40.1952 74.1157 40.2719 73.9623 40.4252C73.8157 40.5719 73.7423 40.7819 73.7423 41.0552V43.6152C73.7423 43.6886 73.7157 43.7486 73.6623 43.7952C73.6157 43.8419 73.5557 43.8652 73.4823 43.8652H72.2423ZM78.0055 43.9652C77.6521 43.9652 77.3288 43.8986 77.0355 43.7652C76.7488 43.6252 76.5221 43.4386 76.3555 43.2052C76.1955 42.9652 76.1155 42.7019 76.1155 42.4152C76.1155 41.9552 76.3021 41.5852 76.6755 41.3052C77.0555 41.0252 77.5755 40.8319 78.2355 40.7252L79.4855 40.5352V40.3952C79.4855 40.1419 79.4321 39.9552 79.3255 39.8352C79.2188 39.7152 79.0388 39.6552 78.7855 39.6552C78.6321 39.6552 78.5055 39.6819 78.4055 39.7352C78.3055 39.7886 78.2021 39.8619 78.0955 39.9552C78.0021 40.0352 77.9321 40.0886 77.8855 40.1152C77.8655 40.1686 77.8288 40.1952 77.7755 40.1952H76.6855C76.6188 40.1952 76.5621 40.1752 76.5155 40.1352C76.4755 40.0886 76.4588 40.0352 76.4655 39.9752C76.4721 39.7952 76.5588 39.5952 76.7255 39.3752C76.8988 39.1552 77.1588 38.9652 77.5055 38.8052C77.8588 38.6452 78.2921 38.5652 78.8055 38.5652C79.6255 38.5652 80.2321 38.7486 80.6255 39.1152C81.0188 39.4752 81.2155 39.9619 81.2155 40.5752V43.6152C81.2155 43.6819 81.1921 43.7419 81.1455 43.7952C81.0988 43.8419 81.0388 43.8652 80.9655 43.8652H79.8055C79.7388 43.8652 79.6788 43.8419 79.6255 43.7952C79.5788 43.7419 79.5555 43.6819 79.5555 43.6152V43.2652C79.4088 43.4719 79.2021 43.6419 78.9355 43.7752C78.6755 43.9019 78.3655 43.9652 78.0055 43.9652ZM78.4755 42.8252C78.7821 42.8252 79.0288 42.7252 79.2155 42.5252C79.4088 42.3252 79.5055 42.0319 79.5055 41.6452V41.5052L78.6555 41.6552C78.0555 41.7619 77.7555 41.9719 77.7555 42.2852C77.7555 42.4519 77.8255 42.5852 77.9655 42.6852C78.1055 42.7786 78.2755 42.8252 78.4755 42.8252ZM82.5939 43.8652C82.5272 43.8652 82.4672 43.8419 82.4139 43.7952C82.3672 43.7419 82.3439 43.6819 82.3439 43.6152V37.0152C82.3439 36.9419 82.3672 36.8819 82.4139 36.8352C82.4672 36.7886 82.5272 36.7652 82.5939 36.7652H83.7739C83.8472 36.7652 83.9072 36.7886 83.9539 36.8352C84.0006 36.8819 84.0239 36.9419 84.0239 37.0152V43.6152C84.0239 43.6886 84.0006 43.7486 83.9539 43.7952C83.9072 43.8419 83.8472 43.8652 83.7739 43.8652H82.5939ZM85.4452 37.9152C85.3719 37.9152 85.3119 37.8919 85.2652 37.8452C85.2186 37.7986 85.1952 37.7386 85.1952 37.6652V36.7652C85.1952 36.6919 85.2186 36.6319 85.2652 36.5852C85.3119 36.5386 85.3719 36.5152 85.4452 36.5152H86.6452C86.7186 36.5152 86.7786 36.5386 86.8252 36.5852C86.8719 36.6319 86.8952 36.6919 86.8952 36.7652V37.6652C86.8952 37.7386 86.8719 37.7986 86.8252 37.8452C86.7786 37.8919 86.7186 37.9152 86.6452 37.9152H85.4452ZM85.4552 43.8652C85.3819 43.8652 85.3219 43.8419 85.2752 43.7952C85.2286 43.7486 85.2052 43.6886 85.2052 43.6152V38.9152C85.2052 38.8419 85.2286 38.7819 85.2752 38.7352C85.3219 38.6886 85.3819 38.6652 85.4552 38.6652H86.6352C86.7086 38.6652 86.7686 38.6886 86.8152 38.7352C86.8619 38.7819 86.8852 38.8419 86.8852 38.9152V43.6152C86.8852 43.6819 86.8619 43.7419 86.8152 43.7952C86.7686 43.8419 86.7086 43.8652 86.6352 43.8652H85.4552ZM89.6266 43.9652C89.2732 43.9652 88.9499 43.8986 88.6566 43.7652C88.3699 43.6252 88.1432 43.4386 87.9766 43.2052C87.8166 42.9652 87.7366 42.7019 87.7366 42.4152C87.7366 41.9552 87.9232 41.5852 88.2966 41.3052C88.6766 41.0252 89.1966 40.8319 89.8566 40.7252L91.1066 40.5352V40.3952C91.1066 40.1419 91.0532 39.9552 90.9466 39.8352C90.8399 39.7152 90.6599 39.6552 90.4066 39.6552C90.2532 39.6552 90.1266 39.6819 90.0266 39.7352C89.9266 39.7886 89.8232 39.8619 89.7166 39.9552C89.6232 40.0352 89.5532 40.0886 89.5066 40.1152C89.4866 40.1686 89.4499 40.1952 89.3966 40.1952H88.3066C88.2399 40.1952 88.1832 40.1752 88.1366 40.1352C88.0966 40.0886 88.0799 40.0352 88.0866 39.9752C88.0932 39.7952 88.1799 39.5952 88.3466 39.3752C88.5199 39.1552 88.7799 38.9652 89.1266 38.8052C89.4799 38.6452 89.9132 38.5652 90.4266 38.5652C91.2466 38.5652 91.8532 38.7486 92.2466 39.1152C92.6399 39.4752 92.8366 39.9619 92.8366 40.5752V43.6152C92.8366 43.6819 92.8132 43.7419 92.7666 43.7952C92.7199 43.8419 92.6599 43.8652 92.5866 43.8652H91.4266C91.3599 43.8652 91.2999 43.8419 91.2466 43.7952C91.1999 43.7419 91.1766 43.6819 91.1766 43.6152V43.2652C91.0299 43.4719 90.8232 43.6419 90.5566 43.7752C90.2966 43.9019 89.9866 43.9652 89.6266 43.9652ZM90.0966 42.8252C90.4032 42.8252 90.6499 42.7252 90.8366 42.5252C91.0299 42.3252 91.1266 42.0319 91.1266 41.6452V41.5052L90.2766 41.6552C89.6766 41.7619 89.3766 41.9719 89.3766 42.2852C89.3766 42.4519 89.4466 42.5852 89.5866 42.6852C89.7266 42.7786 89.8966 42.8252 90.0966 42.8252Z" fill="white"/>
</svg>
